<svg id="Bold" enable-background="new 0 0 24 24" height="512" viewBox="0 0 24 24" width="512" xmlns="http://www.w3.org/2000/svg"><path d="m22.25 0h-20.75c-.692 0-1.5.458-1.5 1.75v11.5c0 1.292.808 1.75 1.5 1.75h20.75c.965 0 1.75-.785 1.75-1.75v-11.5c0-.965-.785-1.75-1.75-1.75z"/><path d="m23.25 16.5h-22.5c-.414 0-.75.336-.75.75s.336.75.75.75h22.5c.414 0 .75-.336.75-.75s-.336-.75-.75-.75z"/><path d="m23.25 19.5h-22.5c-.414 0-.75.336-.75.75s.336.75.75.75h22.5c.414 0 .75-.336.75-.75s-.336-.75-.75-.75z"/><path d="m23.25 22.5h-22.5c-.414 0-.75.336-.75.75s.336.75.75.75h22.5c.414 0 .75-.336.75-.75s-.336-.75-.75-.75z"/></svg>