<svg id="Layer_1" enable-background="new 0 0 512 512" height="512" viewBox="0 0 512 512" width="512" xmlns="http://www.w3.org/2000/svg"><g><g><g><g id="XMLID_866_"><g id="XMLID_867_"><g id="XMLID_868_"><g id="XMLID_869_"><g id="XMLID_870_"><g id="XMLID_871_"><g id="XMLID_872_"><g id="XMLID_873_"><g id="XMLID_874_"><g id="XMLID_875_"><g id="XMLID_876_"><g id="XMLID_877_"><g id="XMLID_878_"><g id="XMLID_879_"><g id="XMLID_880_"><circle cx="256" cy="256" fill="#fc435f" r="256"/></g></g></g></g></g></g></g></g></g></g></g></g></g></g></g></g></g><g><path d="m512 256c0-11.185-.722-22.2-2.113-33.006l-70.707-70.707-15.68 4.88-58.791-56.028-275.158 302.036 100.133 100.133c21.153 5.658 43.379 8.692 66.316 8.692 141.385 0 256-114.615 256-256z" fill="#c61c51"/><g><g><path d="m439.18 152.287v214.965c0 25.932-21.016 46.949-46.949 46.949h-272.462c-25.933 0-46.949-21.016-46.949-46.949v-266.113h291.889v51.148z" fill="#ffede9"/><path d="m439.18 152.29v214.96c0 25.93-21.02 46.95-46.95 46.95h-173.78v-313.06h146.26v51.15z" fill="#ebcdc4"/><g><path d="m395.89 152.287v198.215c0 8.611-6.98 15.591-15.591 15.591-8.61 0-15.591-6.98-15.591-15.591v-198.215z" fill="#d3a99f"/></g></g><g><path d="m108.904 171.639h109.548v96.637h-109.548z" fill="#23c9a9"/><g><path d="m274.575 149.395h31.181v75.669h-31.181z" fill="#684b52" transform="matrix(0 1 -1 0 477.395 -102.936)"/><g><g><path d="m252.331 237.094h75.669v31.181h-75.669z" fill="#684b52"/></g></g></g><g><g><path d="m202.861 208.592h31.181v219.096h-31.181z" fill="#985450" transform="matrix(0 1 -1 0 536.592 99.688)"/></g></g><g><g><g><path d="m218.45 302.55h109.55v31.18h-109.55z" fill="#684b52"/></g></g></g></g></g></g></g></svg>