<?xml version="1.0" encoding="UTF-8" standalone="no"?>
<svg
   xmlns:dc="http://purl.org/dc/elements/1.1/"
   xmlns:cc="http://creativecommons.org/ns#"
   xmlns:rdf="http://www.w3.org/1999/02/22-rdf-syntax-ns#"
   xmlns:svg="http://www.w3.org/2000/svg"
   xmlns="http://www.w3.org/2000/svg"
   xml:space="preserve"
   style="enable-background:new 0 0 512 512;"
   viewBox="0 0 512 512"
   y="0px"
   x="0px"
   id="Layer_1"
   version="1.1"><metadata
     id="metadata43"><rdf:RDF><cc:Work
         rdf:about=""><dc:format>image/svg+xml</dc:format><dc:type
           rdf:resource="http://purl.org/dc/dcmitype/StillImage" /></cc:Work></rdf:RDF></metadata><defs
     id="defs41" /><g
     id="g6"><g
       id="g4"><path
         id="path2"
         d="M256,0C114.833,0,0,114.844,0,256s114.833,256,256,256s256-114.844,256-256S397.167,0,256,0z M357.771,264.969    l-149.333,96c-1.75,1.135-3.771,1.698-5.771,1.698c-1.75,0-3.521-0.438-5.104-1.302C194.125,359.49,192,355.906,192,352V160    c0-3.906,2.125-7.49,5.563-9.365c3.375-1.854,7.604-1.74,10.875,0.396l149.333,96c3.042,1.958,4.896,5.344,4.896,8.969    S360.813,263.01,357.771,264.969z" /></g></g><g
     id="g8" /><g
     id="g10" /><g
     id="g12" /><g
     id="g14" /><g
     id="g16" /><g
     id="g18" /><g
     id="g20" /><g
     id="g22" /><g
     id="g24" /><g
     id="g26" /><g
     id="g28" /><g
     id="g30" /><g
     id="g32" /><g
     id="g34" /><g
     id="g36" /></svg>