<svg id="Capa_1" enable-background="new 0 0 512 512" height="512" viewBox="0 0 512 512" width="512" xmlns="http://www.w3.org/2000/svg"><g><path d="m391 432v78.812c40.393-6.435 72.377-38.418 78.812-78.812z"/><g><path d="m326.396 148.337 8.581-5.543-10.73-18.587-9.124 4.676c-5.442 2.791-12.033 1.997-16.657-2.006-6.236-5.396-13.356-9.508-21.163-12.219-5.774-2.005-9.754-7.315-10.06-13.42l-.512-10.238h-21.463l-.512 10.237c-.306 6.105-4.285 11.415-10.06 13.42-7.807 2.711-14.927 6.823-21.163 12.219-4.625 4.002-11.216 4.795-16.657 2.006l-9.124-4.676-10.73 18.587 8.581 5.543c5.131 3.315 7.739 9.41 6.595 15.411-.795 4.168-1.198 8.29-1.198 12.253s.403 8.085 1.198 12.252c1.145 6-1.464 12.096-6.595 15.411l-8.581 5.543 10.731 18.587 9.123-4.676c5.443-2.79 12.034-1.996 16.657 2.006 6.236 5.396 13.356 9.508 21.163 12.219 5.774 2.005 9.754 7.315 10.06 13.42l.513 10.238h21.463l.512-10.237c.306-6.105 4.285-11.415 10.06-13.42 7.807-2.711 14.927-6.823 21.163-12.219 4.625-4.002 11.217-4.795 16.657-2.006l9.123 4.676 10.731-18.587-8.581-5.543c-5.131-3.314-7.739-9.41-6.595-15.411.795-4.167 1.198-8.29 1.198-12.252s-.403-8.085-1.198-12.252c-1.145-6.002 1.464-12.097 6.594-15.412zm-70.396 72.663c-24.813 0-45-20.187-45-45s20.187-45 45-45 45 20.187 45 45-20.187 45-45 45z"/><circle cx="256" cy="176" r="15"/></g><g><circle cx="256" cy="416" r="15"/><path d="m416 0h-320c-30.327 0-55 24.673-55 55v402c0 30.327 24.673 55 55 55h265v-95c0-8.284 6.716-15 15-15h95v-347c0-30.327-24.673-55-55-55zm-50 381c-19.555 0-36.228-12.541-42.42-30h-52.58v22.58c17.459 6.192 30 22.865 30 42.42 0 24.813-20.187 45-45 45s-45-20.187-45-45c0-19.555 12.541-36.228 30-42.42v-22.58h-52.58c-6.192 17.459-22.865 30-42.42 30-24.813 0-45-20.187-45-45s20.187-45 45-45c19.555 0 36.228 12.541 42.42 30h52.58v-30h-10c-7.993 0-14.582-6.268-14.981-14.251l-.749-14.988c-4.596-2.179-8.993-4.718-13.175-7.607l-13.355 6.845c-7.108 3.647-15.834 1.075-19.832-5.849l-25-43.301c-3.997-6.922-1.863-15.763 4.851-20.1l12.564-8.117c-.215-2.566-.323-5.114-.323-7.632s.108-5.066.322-7.633l-12.564-8.117c-6.714-4.337-8.848-13.177-4.851-20.1l25-43.301c3.996-6.922 12.724-9.493 19.832-5.849l13.355 6.845c4.181-2.888 8.58-5.428 13.175-7.606l.749-14.988c.4-7.983 6.989-14.251 14.982-14.251h50c7.993 0 14.582 6.268 14.981 14.251l.749 14.988c4.595 2.179 8.994 4.719 13.175 7.606l13.356-6.845c7.111-3.645 15.835-1.075 19.832 5.849l25 43.301c3.997 6.922 1.863 15.762-4.851 20.1l-12.564 8.117c.214 2.567.322 5.116.322 7.633s-.108 5.066-.322 7.633l12.564 8.117c6.714 4.337 8.848 13.177 4.851 20.1l-25 43.301c-3.996 6.923-12.718 9.496-19.832 5.849l-13.355-6.845c-4.182 2.889-8.579 5.428-13.175 7.607l-.749 14.988c-.4 7.982-6.989 14.25-14.982 14.25h-10v30h52.58c6.192-17.459 22.865-30 42.42-30 24.813 0 45 20.187 45 45s-20.187 45-45 45z"/><circle cx="146" cy="336" r="15"/><circle cx="366" cy="336" r="15"/></g></g></svg>